<svg style="dispaly:none" xmlns="http://www.w3.org/2000/svg" xmlns:xlink="http://www.w3.org/1999/xlink">

  <symbol id="paper" viewBox="20 0 396 396">
    <path d="M334.86 69.74c-10.05 0-18.2 8.15-18.2 18.2v79.33c0 4.37-3.92 7.91-8.76 7.91 -4.84 0-8.76-3.54-8.76-7.91V54.77c-0.01-12.07-9.8-21.85-21.87-21.85 -12.08 0-21.87 9.79-21.87 21.87 0 0 0.06 112.42 0 112.44v0.04c0 4.37-3.7 7.91-8.26 7.91 -4.56 0-8.26-3.54-8.26-7.91V23.69C238.84 10.6 228.23 0 215.15 0c-13.1 0-23.71 10.61-23.71 23.71 0 0-0.02 142.38-0.02 144.03 -0.25 4.15-3.68 7.44-7.88 7.44 -4.37 0-7.91-3.54-7.91-7.91V44.42c0-13.1-10.61-23.71-23.71-23.71 -13.1 0-23.71 10.61-23.71 23.71 -0.22 171.79-0.22 171.79-0.23 186.02 0 5.37 0.1 16.91-2.48 18.84 -2.15 1.6-5.01-0.39-8.48-5.07 -7.86-10.62-19.22-27.48-27.48-38.75 -7.84-10.69-20.22-22.29-34.27-14.6 -13.36 7.31-15.63 26.04-6.59 38.31 0 0 58.55 85.92 78.56 115.79 11.71 17.49 14.85 23.03 18.89 28.77 15.39 21.89 23.98 22.57 48.79 22.57 26.77 0 102.84 0 102.84 0 55.32 0 55.32-65.67 55.32-93.69V97.94C353.06 77.88 344.91 69.74 334.86 69.74z"/>
  </symbol>

  <symbol id="stone" viewBox="-27 0 512 512">
    <path d="M364.4 18.07C386.02 18.07 403.6 35.65 403.6 57.27L403.6 78.4 325.2 78.4 325.2 57.27C325.2 35.65 342.79 18.07 364.4 18.07ZM216.8 39.2C216.8 17.59 234.39 0 256 0 277.61 0 295.2 17.59 295.2 39.2L295.2 78.4 256 78.4C241.46 78.4 227.95 82.92 216.8 90.62ZM108.4 57.27C108.4 35.65 125.98 18.07 147.6 18.07 169.21 18.07 186.8 35.65 186.8 57.27L186.8 147.6C186.8 169.21 169.21 186.8 147.6 186.8 125.98 186.8 108.4 169.21 108.4 147.6ZM39.2 54.2C60.82 54.2 78.4 71.79 78.4 93.4L78.4 147.6C78.4 169.21 60.82 186.8 39.2 186.8 22.87 186.8 8.85 176.77 2.96 162.54L0 146.25 0 93.4C0 71.79 17.59 54.2 39.2 54.2ZM421.58 345.27C415.48 375.54 390.37 403.86 359.06 415.79 353.24 418 349.4 423.58 349.4 429.8L349.4 481.84C349.4 498.47 335.87 512 319.23 512L138.57 512C121.93 512 108.4 498.47 108.4 481.84L108.4 429.8C108.4 423.58 104.55 418 98.74 415.79 67.44 403.87 42.33 375.54 36.22 345.27L11.81 211.14C20.21 214.77 29.47 216.8 39.2 216.8 61.14 216.8 80.71 206.53 93.4 190.55 106.09 206.53 125.66 216.8 147.6 216.8 169.54 216.8 189.11 206.53 201.8 190.55 214.49 206.53 234.06 216.8 256 216.8L364.4 216.8C372.68 216.8 379.4 210.09 379.4 201.8 379.4 193.52 372.68 186.8 364.4 186.8L256 186.8C234.39 186.8 216.8 169.21 216.8 147.6 216.8 125.98 234.39 108.4 256 108.4L418.6 108.4C439.82 108.4 457.14 125.35 457.77 146.41ZM421.58 345.27"/>
  </symbol>

  <symbol id="scissors" viewBox="0 0 512 512">
  <path d="M392.77 250.83c0.29-0.99 0.34-1.99 0.55-2.99 0.25-1.23 0.54-2.46 0.67-3.7 0.15-1.37 0.14-2.72 0.15-4.08 0.01-1.22 0.05-2.44-0.04-3.66 -0.13-1.45-0.42-2.86-0.7-4.29 -0.22-1.08-0.36-2.16-0.66-3.22 -0.48-1.68-1.14-3.27-1.81-4.87 -0.28-0.66-0.43-1.34-0.75-1.98 -0.05-0.12-0.14-0.22-0.2-0.33 -0.86-1.72-1.92-3.31-3.01-4.89 -0.39-0.57-0.71-1.19-1.12-1.74 -1.13-1.46-2.45-2.78-3.78-4.09 -0.53-0.51-0.96-1.11-1.52-1.59 -1.45-1.29-3.11-2.38-4.77-3.45 -0.53-0.35-0.98-0.79-1.53-1.1 -2.25-1.31-4.66-2.42-7.21-3.3 -2.41-0.83-4.84-1.37-7.28-1.73 -0.74-0.11-1.48-0.11-2.23-0.18 -1.72-0.15-3.41-0.24-5.11-0.18 -0.87 0.03-1.72 0.14-2.59 0.23 -1.63 0.16-3.22 0.41-4.81 0.78 -0.81 0.18-1.6 0.37-2.4 0.6 -0.57 0.17-1.16 0.24-1.72 0.44 -0.01-0.49-0.11-0.98-0.13-1.46 -0.04-0.75-0.12-1.46-0.2-2.2 -0.17-1.68-0.45-3.32-0.83-4.95 -0.17-0.69-0.31-1.38-0.51-2.08 -0.56-1.91-1.26-3.78-2.09-5.59 -0.14-0.3-0.23-0.62-0.38-0.91 -1.03-2.09-2.26-4.07-3.64-5.95 -0.36-0.48-0.76-0.92-1.14-1.38 -1.1-1.36-2.27-2.66-3.55-3.87 -0.55-0.52-1.11-1.01-1.7-1.51 -1.3-1.1-2.69-2.1-4.15-3.04 -0.59-0.38-1.15-0.77-1.76-1.12 -2.1-1.19-4.3-2.26-6.67-3.08l-1.51-0.52c-2.54-0.87-5.11-1.46-7.68-1.8 -1.05-0.14-2.09-0.07-3.15-0.13 -1.51-0.08-3.02-0.22-4.5-0.13 -1.22 0.07-2.39 0.37-3.58 0.55 -1.29 0.21-2.59 0.32-3.84 0.65 -1.29 0.33-2.51 0.87-3.75 1.33 -0.98 0.36-1.99 0.6-2.94 1.03l20.53-110.83c2.4-12.96 0.23-25.54-6.12-35.43C289.99 7.12 278 0 265.58 0c-22.03 0-37.26 21.85-40.93 43.51l-18.32 116.01L188.38 51.89c-8.53-37.33-28.46-42.91-39.57-42.91 -12.54 0-24.81 7.05-32.79 18.87 -6.47 9.56-8.96 21.89-7.05 34.73l25.97 172.68 11.05 56.65 -7.68 6.34c-28.01 19.72-30.43 40.21-30.48 68.97 -0.04 0.34-0.06 0.7-0.06 1.06 0 38.59 26.47 66.95 35.96 75.87v32.02c0 19.75 16.07 35.83 35.82 35.83h162.41c19.65 0 35.17-15.71 35.31-35.8l0.08-33.2c26.15-35.35 26.9-47.96 26.9-110.67C404.24 299.03 395.32 261.04 392.77 250.83zM249.91 224.86c-7.99 0.89-17.72 4.2-29.24 11.92 -11.41 7.66-35.46 25.63-58.7 43.33l-9.34-47.89L126.74 59.91c-1.27-8.37 0.22-16.19 4.15-22 4.64-6.87 11.35-10.97 17.92-10.97 12.76 0 19.04 15.75 21.95 28.42l26.95 161.68c0.72 4.34 4.47 7.51 8.87 7.51h0.04c4.41-0.02 8.15-3.22 8.83-7.58l26.94-170.57c2.32-13.68 11.85-28.45 23.2-28.45 6.36 0 12.54 3.94 16.94 10.8 3.86 6.03 5.13 14 3.57 22.47L258.78 198.7l-8.78 25.54C249.93 224.45 249.97 224.65 249.91 224.86zM275.2 324.69c-5.22 2.55-11.07 2.91-16.53 1.05l-1.51-0.53c-1.4-0.48-2.73-1.1-3.99-1.87 15.5-19.33 26.86-36.82 31.6-48.72 0.01-0.02 0.01-0.04 0.02-0.07 0.01-0.02 0.03-0.04 0.04-0.06 4.37-11.5 3.36-23.89-1.98-33.51 -3.13-6.99-7.73-13.28-13.51-17.72l9.96-29c3.89-11.28 16.2-17.34 27.53-13.44l1.5 0.52h0.01c11.29 3.88 17.33 16.23 13.45 27.53l-6.11 17.74 -29.48 85.71C284.32 317.75 280.42 322.15 275.2 324.69zM374.93 247.64L343 340.49c-1.95 5.64-6 10.2-11.4 12.85 -5.41 2.65-11.49 3.05-17.15 1.09 -11.7-4.02-17.96-16.83-13.93-28.54l2.65-7.72c0.01-0.01 0.01-0.02 0.02-0.03l29.49-85.73c0.12-0.34 0.31-0.64 0.44-0.98 0.43-1.06 0.87-2.12 1.44-3.08 0.3-0.5 0.69-0.93 1.02-1.41 0.51-0.72 0.98-1.46 1.56-2.12 0.57-0.63 1.24-1.17 1.88-1.73 0.44-0.39 0.84-0.83 1.31-1.19 1.15-0.87 2.4-1.64 3.73-2.3 1.45-0.7 2.95-1.2 4.47-1.58 0.57-0.15 1.19-0.21 1.78-0.3 0.94-0.15 1.89-0.29 2.84-0.32 0.95-0.04 1.91-0.01 2.87 0.08 0.35 0.04 0.71 0.04 1.06 0.09 1.37 0.2 2.76 0.49 4.12 0.95 5.63 1.94 10.2 5.99 12.84 11.41C376.68 235.32 377.07 241.4 374.93 247.64z"/>
  </symbol>
</svg>
