<svg style="dispaly:none" xmlns="http://www.w3.org/2000/svg" xmlns:xlink="http://www.w3.org/1999/xlink">

  <symbol id="paper" viewBox="20 0 396 396">
    <path d="M334.86,69.735c-10.052,0-18.202,8.149-18.202,18.202v79.334c0,4.365-3.923,7.906-8.764,7.906
			c-4.842,0-8.765-3.541-8.765-7.906V54.766c-0.015-12.071-9.802-21.851-21.87-21.851c-12.083,0-21.875,9.793-21.875,21.873
			c0,0,0.06,112.416,0,112.443v0.039c0,4.365-3.698,7.906-8.265,7.906c-4.563,0-8.265-3.541-8.265-7.906V23.688
			C238.843,10.604,228.234,0,215.149,0c-13.097,0-23.711,10.614-23.711,23.711c0,0-0.024,142.38-0.024,144.031
			c-0.246,4.146-3.676,7.436-7.884,7.436c-4.367,0-7.907-3.541-7.907-7.906V44.415c0-13.096-10.614-23.71-23.708-23.71
			c-13.096,0-23.711,10.614-23.711,23.71c-0.219,171.794-0.218,171.794-0.234,186.019c0,5.369,0.104,16.905-2.484,18.836
			c-2.149,1.604-5.012-0.389-8.477-5.066c-7.863-10.617-19.216-27.481-27.484-38.752c-7.838-10.686-20.218-22.288-34.271-14.602
			c-13.364,7.311-15.628,26.043-6.591,38.313c0,0,58.548,85.917,78.556,115.788c11.712,17.485,14.854,23.026,18.892,28.771
			c15.388,21.886,23.975,22.57,48.791,22.57c26.771,0,102.836,0,102.836,0c55.323,0,55.323-65.667,55.323-93.693V97.943
			C353.061,77.884,344.913,69.735,334.86,69.735z"/>
  </symbol>

  <symbol id="stone" viewBox="-27 0 512 512">
    <path d="M 364.398438 18.066406 C 386.015625 18.066406 403.597656 35.652344 403.597656 57.265625 L  403.597656 78.398438 L 325.199219 78.398438 L 325.199219 57.269531 C 325.199219 35.652344 342.785156 18.066406 364.398438 18.066406 Z M 216.800781 39.199219 C 216.800781 17.585938 234.386719 0 256 0 C 277.613281 0 295.199219 17.585938 295.199219 39.199219 L 295.199219 78.398438 L 256 78.398438 C 241.457031 78.398438 227.953125 82.921875 216.800781 90.617188 Z M 108.398438 57.269531 C 108.398438 35.652344 125.984375 18.066406 147.597656 18.066406 C 169.214844 18.066406 186.800781 35.652344 186.800781 57.269531 L 186.800781 147.601562 C 186.800781 169.214844 169.214844 186.800781 147.597656 186.800781 C 125.984375 186.800781 108.398438 169.214844 108.398438 147.601562 Z M 39.199219 54.199219 C 60.816406 54.199219 78.398438 71.785156 78.398438 93.398438 L 78.398438 147.601562 C 78.398438 169.214844 60.816406 186.800781 39.199219 186.800781 C 22.871094 186.800781 8.851562 176.765625 2.964844 162.535156 L 0 146.246094 L 0 93.398438 C 0 71.785156 17.585938 54.199219 39.199219 54.199219 Z M 421.582031 345.265625 C 415.476562 375.535156 390.367188 403.859375 359.058594 415.785156 C 353.242188 418 349.398438 423.578125 349.398438 429.800781 L 349.398438 481.835938 C 349.398438 498.46875 335.867188 512 319.230469 512 L 138.566406 512 C 121.929688 512 108.398438 498.46875 108.398438 481.835938 L 108.398438 429.800781 C 108.398438 423.578125 104.554688 418 98.738281 415.785156 C 67.441406 403.867188 42.332031 375.535156 36.21875 345.265625 L 11.808594 211.136719 C 20.214844 214.773438 29.472656 216.800781 39.199219 216.800781 C 61.140625 216.800781 80.714844 206.527344 93.402344 190.546875 C 106.089844 206.527344 125.660156 216.800781 147.597656 216.800781 C 169.539062 216.800781 189.113281 206.527344 201.800781 190.546875 C 214.488281 206.527344 234.058594 216.800781 256 216.800781 L 364.398438 216.800781 C 372.683594 216.800781 379.398438 210.085938 379.398438 201.800781 C 379.398438 193.515625 372.683594 186.800781 364.398438 186.800781 L 256 186.800781 C 234.386719 186.800781 216.800781 169.214844 216.800781 147.601562 C 216.800781 125.984375 234.386719 108.402344 256 108.402344 L 418.597656 108.402344 C 439.816406 108.402344 457.136719 125.347656 457.769531 146.414062 Z M 421.582031 345.265625"/>
  </symbol>

  <symbol id="scissors" viewBox="0 0 512 512">
    <path d="M392.771,250.826c0.287-0.988,0.341-1.994,0.548-2.991c0.252-1.231,0.539-2.461,0.674-3.701
		c0.153-1.374,0.144-2.722,0.153-4.078c0.009-1.222,0.054-2.443-0.045-3.656c-0.126-1.455-0.422-2.865-0.701-4.294
		c-0.216-1.078-0.359-2.156-0.656-3.216c-0.476-1.68-1.141-3.27-1.815-4.869c-0.278-0.656-0.431-1.338-0.746-1.985
		c-0.054-0.117-0.144-0.216-0.198-0.332c-0.862-1.716-1.922-3.315-3.009-4.895c-0.395-0.566-0.71-1.195-1.123-1.743
		c-1.132-1.464-2.452-2.776-3.782-4.087c-0.53-0.512-0.961-1.114-1.518-1.59c-1.455-1.294-3.108-2.38-4.77-3.449
		c-0.53-0.35-0.979-0.79-1.527-1.105c-2.255-1.311-4.662-2.425-7.213-3.297c-2.407-0.835-4.842-1.374-7.276-1.734
		c-0.737-0.108-1.482-0.108-2.228-0.18c-1.716-0.153-3.413-0.243-5.111-0.18c-0.871,0.027-1.725,0.135-2.587,0.225
		c-1.626,0.162-3.225,0.413-4.806,0.781c-0.808,0.18-1.599,0.368-2.398,0.602c-0.566,0.171-1.159,0.243-1.716,0.44
		c-0.009-0.494-0.108-0.979-0.126-1.464c-0.036-0.746-0.117-1.464-0.198-2.201c-0.171-1.68-0.449-3.324-0.826-4.949
		c-0.171-0.692-0.314-1.383-0.512-2.075c-0.557-1.913-1.258-3.782-2.093-5.587c-0.144-0.296-0.234-0.62-0.377-0.907
		c-1.033-2.093-2.264-4.069-3.638-5.946c-0.359-0.485-0.763-0.916-1.141-1.383c-1.096-1.356-2.273-2.659-3.548-3.871
		c-0.548-0.521-1.114-1.015-1.698-1.509c-1.302-1.096-2.695-2.102-4.15-3.045c-0.593-0.377-1.15-0.772-1.761-1.123
		c-2.102-1.195-4.303-2.264-6.674-3.081l-1.509-0.521c-2.542-0.871-5.111-1.464-7.68-1.805c-1.051-0.144-2.093-0.072-3.153-0.126
		c-1.509-0.081-3.018-0.225-4.5-0.135c-1.222,0.072-2.389,0.368-3.584,0.548c-1.293,0.207-2.587,0.323-3.844,0.647
		c-1.293,0.332-2.506,0.871-3.746,1.329c-0.979,0.359-1.994,0.602-2.937,1.033l20.525-110.835
		c2.398-12.962,0.225-25.537-6.117-35.427C289.985,7.123,278.003,0,265.58,0c-22.034,0-37.259,21.845-40.933,43.511
		l-18.324,116.008L188.376,51.892c-8.533-37.331-28.456-42.909-39.568-42.909c-12.54,0-24.81,7.051-32.795,18.872
		c-6.467,9.557-8.964,21.89-7.051,34.726l25.968,172.679l11.048,56.652l-7.68,6.342c-28.007,19.717-30.433,40.206-30.477,68.967
		c-0.045,0.341-0.063,0.701-0.063,1.06c0,38.589,26.471,66.946,35.957,75.866v32.022c0,19.752,16.07,35.831,35.822,35.831h162.412
		c19.654,0,35.166-15.71,35.31-35.804l0.081-33.199c26.148-35.346,26.902-47.957,26.902-110.673
		C404.242,299.026,395.322,261.039,392.771,250.826z M249.914,224.858c-7.994,0.889-17.722,4.195-29.238,11.92
		c-11.408,7.662-35.463,25.627-58.7,43.331l-9.342-47.894L126.738,59.913c-1.267-8.372,0.216-16.186,4.15-21.998
		c4.644-6.872,11.345-10.968,17.92-10.968c12.764,0,19.043,15.746,21.953,28.42l26.947,161.684
		c0.719,4.339,4.473,7.509,8.866,7.509h0.036c4.41-0.018,8.147-3.225,8.83-7.581l26.938-170.568
		c2.317-13.68,11.848-28.447,23.202-28.447c6.36,0,12.539,3.943,16.941,10.797c3.862,6.027,5.129,14.004,3.566,22.465
		L258.78,198.701l-8.776,25.537C249.932,224.445,249.968,224.651,249.914,224.858z M275.2,324.689
		c-5.219,2.551-11.075,2.91-16.528,1.051l-1.509-0.53c-1.401-0.476-2.731-1.105-3.988-1.868
		c15.495-19.33,26.858-36.819,31.6-48.721c0.009-0.018,0.009-0.045,0.018-0.072c0.009-0.018,0.027-0.045,0.036-0.063
		c4.365-11.497,3.359-23.893-1.985-33.505c-3.126-6.988-7.734-13.276-13.51-17.722l9.962-29.004
		c3.889-11.282,16.204-17.336,27.531-13.438l1.5,0.521h0.009c11.291,3.88,17.327,16.231,13.447,27.531l-6.108,17.74l-29.48,85.711
		C284.317,317.745,280.419,322.147,275.2,324.689z M374.932,247.637L343,340.489c-1.949,5.641-6,10.204-11.399,12.845
		c-5.407,2.65-11.489,3.045-17.148,1.087c-11.704-4.024-17.965-16.833-13.932-28.537l2.65-7.716
		c0.009-0.009,0.009-0.018,0.018-0.027l29.489-85.729c0.117-0.341,0.314-0.638,0.44-0.979c0.431-1.06,0.871-2.12,1.437-3.081
		c0.296-0.503,0.692-0.934,1.024-1.41c0.512-0.719,0.979-1.464,1.563-2.12c0.566-0.629,1.24-1.168,1.877-1.734
		c0.44-0.386,0.844-0.835,1.311-1.186c1.15-0.871,2.398-1.644,3.728-2.3c1.446-0.701,2.946-1.204,4.473-1.581
		c0.575-0.153,1.186-0.207,1.779-0.305c0.943-0.153,1.886-0.287,2.839-0.323c0.952-0.036,1.913-0.009,2.874,0.081
		c0.35,0.036,0.71,0.036,1.06,0.09c1.374,0.198,2.758,0.485,4.123,0.952c5.632,1.94,10.195,5.991,12.836,11.408
		C376.684,235.322,377.07,241.395,374.932,247.637z"/>
  </symbol>
</svg>
